<svg width="512" height="512" viewBox="0 0 512 512" fill="none" xmlns="http://www.w3.org/2000/svg">
  <rect width="512" height="512" rx="160" fill="#FFF1F7"/>
  <circle cx="256" cy="256" r="176" fill="#FFE0EC"/>
  <path d="M256 352C251.934 348.393 248.112 344.966 244.534 341.718C193.994 295.904 160.906 265.914 160.906 228.938C160.906 198.671 184.687 174.594 214.867 174.594C231.914 174.594 248.274 182.527 258.797 194.964C269.32 182.527 285.68 174.594 302.727 174.594C332.907 174.594 356.688 198.671 356.688 228.938C356.688 265.914 323.6 295.904 273.06 341.718C269.482 344.966 265.66 348.393 261.594 352L259 354.36L256 352Z" fill="#FF6FA5"/>
  <path d="M256 327C253.143 324.496 250.45 322.118 247.92 319.867C212.196 288.171 188.813 267.405 188.813 241.797C188.813 220.839 205.616 204.156 226.938 204.156C238.986 204.156 250.543 209.63 257.984 218.169C265.425 209.63 276.981 204.156 289.029 204.156C310.351 204.156 327.154 220.839 327.154 241.797C327.154 267.405 303.771 288.171 268.047 319.867C265.517 322.118 262.824 324.496 259.967 327L258 328.726L256 327Z" fill="#FB9EC4"/>
</svg>
