<svg width="320" height="240" viewBox="0 0 320 240" fill="none" xmlns="http://www.w3.org/2000/svg">
  <path d="M110.251 237.348C105.309 233.158 100.667 229.181 96.3272 225.416C35.0268 172.241 -5.09003 137.46 -5.09003 94.5663C-5.09003 59.4342 22.0933 31.5 56.6011 31.5C76.0889 31.5 94.7843 40.6957 106.825 55.1015C118.867 40.6957 137.562 31.5 157.05 31.5C191.558 31.5 218.741 59.4342 218.741 94.5663C218.741 137.46 178.624 172.241 117.324 225.416C112.984 229.181 108.342 233.158 103.4 237.348L106.825 240.285L110.251 237.348Z" fill="#F5619E"/>
  <path d="M212.251 237.348C207.309 233.158 202.667 229.181 198.327 225.416C137.027 172.241 96.91 137.46 96.91 94.5663C96.91 59.4342 124.093 31.5 158.601 31.5C178.089 31.5 196.784 40.6957 208.825 55.1015C220.867 40.6957 239.562 31.5 259.05 31.5C293.558 31.5 320.741 59.4342 320.741 94.5663C320.741 137.46 280.624 172.241 219.324 225.416C214.984 229.181 210.342 233.158 205.4 237.348L208.825 240.285L212.251 237.348Z" fill="#7A2A54"/>
</svg>
