<svg width="1200" height="630" viewBox="0 0 1200 630" fill="none" xmlns="http://www.w3.org/2000/svg">
  <rect width="1200" height="630" fill="#FFF5F9"/>
  <rect x="24" y="24" width="1152" height="582" rx="40" fill="#FFF1F7" stroke="#FB9EC4" stroke-width="2"/>
  <circle cx="1035" cy="122" r="92" fill="#FFC7BA" fill-opacity="0.38"/>
  <circle cx="182" cy="506" r="120" fill="#8865FF" fill-opacity="0.1"/>
  <circle cx="944" cy="482" r="146" fill="#FFDAC0" fill-opacity="0.42"/>
  <path d="M600 451C594.271 445.92 588.886 441.095 583.844 436.526C512.615 371.972 466 329.736 466 277.625C466 234.954 499.522 201 542.063 201C566.098 201 589.164 212.188 604 229.729C618.836 212.188 641.902 201 665.938 201C708.478 201 742 234.954 742 277.625C742 329.736 695.385 371.972 624.156 436.526C619.114 441.095 613.729 445.92 608 451L604 454.542L600 451Z" fill="#FF6FA5"/>
  <path d="M600 420C595.843 416.356 591.92 412.896 588.231 409.62C536.116 363.349 502 333.396 502 296.031C502 265.443 526.529 241 557.703 241C575.284 241 592.153 249.017 603 261.587C613.847 249.017 630.716 241 648.297 241C679.471 241 704 265.443 704 296.031C704 333.396 669.884 363.349 617.769 409.62C614.08 412.896 610.157 416.356 606 420L603 422.713L600 420Z" fill="#FB9EC4"/>
  <text x="112" y="165" fill="#FB9EC4" font-family="Montserrat, Arial, sans-serif" font-size="30" font-weight="700" letter-spacing="0.18em">LAB TÌNH IU</text>
  <text x="112" y="255" fill="#7A2A54" font-family="Montserrat, Arial, sans-serif" font-size="82" font-weight="800">
    <tspan x="112" dy="0">Test độ hợp nhau</tspan>
    <tspan x="112" dy="92">với crush bằng</tspan>
    <tspan x="112" dy="92">tim hồng và drama</tspan>
  </text>
  <text x="112" y="565" fill="#A86D8D" font-family="Montserrat, Arial, sans-serif" font-size="34" font-weight="500">
    Pink heart preview for your prank link
  </text>
</svg>
